<?xml version="1.0" encoding="utf-8"?>
<!-- Generator: Adobe Illustrator 19.2.1, SVG Export Plug-In . SVG Version: 6.00 Build 0)  -->
<svg version="1.1" id="layer" xmlns="http://www.w3.org/2000/svg" xmlns:xlink="http://www.w3.org/1999/xlink" x="0px" y="0px"
	 viewBox="0 0 652 652" style="enable-background:new 0 0 652 652;" xml:space="preserve">
<style type="text/css">
	.st0{fill:#231815;}
</style>
<g>
	<path class="st0" d="M142.7,276.5h69.8v20.4h-44.4v17.6h41v20.6h-41v19.3h44.4v20.4h-69.8V276.5z M299.5,342.9
		c0,7.8-4.3,12.1-16.8,12.1c-12.5,0-16.6-4.4-16.6-12.1v-66.4h-25.3v69.2c0,15.5,9.5,31,42,31c32.7,0,42.2-15.5,42.2-31v-69.2h-25.3
		V342.9z M471.7,374.8H497v-98.3h-25.3V374.8z M583.6,326.2v27.6c-4.5,0.8-9.6,1.3-15.1,1.3c-13,0-15.5-4.5-15.5-12.9v-33.9
		c0-9.1,4.4-12.1,15.1-12.1c10.4,0,21.8,1.1,33.8,2.8l2.3-21.2c-12.5-2.5-24.2-3.4-35.6-3.4c-28.9,0-41,9.8-41,30.6v40.9
		c0,19.7,11,30.6,40.3,30.6c13,0,27-1.7,39-5.1v-45.4H583.6z M41.3,310.2c-8.5,0-15.4,6.9-15.4,15.5c0,8.5,6.9,15.5,15.4,15.5
		c8.5,0,15.4-6.9,15.4-15.5C56.7,317.1,49.8,310.2,41.3,310.2 M41.3,274.6c-8.5,0-15.4,6.9-15.4,15.5c0,8.5,6.9,15.5,15.4,15.5
		c8.5,0,15.4-6.9,15.4-15.5C56.7,281.5,49.8,274.6,41.3,274.6 M41.3,345.8c-8.5,0-15.4,6.9-15.4,15.5c0,8.5,6.9,15.5,15.4,15.5
		c8.5,0,15.4-6.9,15.4-15.5C56.7,352.7,49.8,345.8,41.3,345.8 M118.7,276.5H90.2l-28.9,49.2l28.9,49.2h28.4l-29.8-49.2L118.7,276.5z
		 M425.5,341.9l19.9,32.9h-28.4L401.2,347h-19.4v27.8h-25.3v-98.3H403c26.5,0,35,10.4,35,28.4v13.8
		C437.9,329.8,434.9,336.3,425.5,341.9L425.5,341.9z M413.4,306c0-6.4-3-9.1-10.6-9.1h-21V327h20.4c8.1,0,11.2-3,11.2-9.6V306z
		 M619.4,275.1c-3.6,0-6.5,2.9-6.5,6.6c0,3.6,2.9,6.6,6.5,6.6c3.6,0,6.5-3,6.5-6.6C626,278,623,275.1,619.4,275.1 M619.4,287.4
		c-3.2,0-5.7-2.6-5.7-5.8c0-3.2,2.6-5.7,5.7-5.7s5.7,2.6,5.7,5.7C625.1,284.8,622.6,287.4,619.4,287.4 M619.8,282.5h-1.5v2.1h-0.9
		v-6.2h2.4c1.3,0,1.9,0.6,1.9,1.6v0.9c0,0.7-0.2,1.1-0.9,1.4l1.7,2.2h-1.1L619.8,282.5z M619.8,279.2h-1.5v2.5h1.5
		c0.7,0,1-0.3,1-0.8V280C620.8,279.4,620.5,279.2,619.8,279.2"/>
</g>
</svg>
